Coordinates
version=1
nRows=19
nColumns=34
inDegrees=yes

Units are S.I. units (second, meters, Newtons, ...)
If the header above contains a line with 'inDegrees', this indicates whether rotational values are in degrees (yes) or radians (no).

endheader
time	pelvis_tilt	pelvis_list	pelvis_rotation	pelvis_tx	pelvis_ty	pelvis_tz	hip_flexion_r	hip_adduction_r	hip_rotation_r	knee_angle_r	ankle_angle_r	subtalar_angle_r	mtp_angle_r	hip_flexion_l	hip_adduction_l	hip_rotation_l	knee_angle_l	ankle_angle_l	subtalar_angle_l	mtp_angle_l	lumbar_extension	lumbar_bending	lumbar_rotation	arm_flex_r	arm_add_r	arm_rot_r	elbow_flex_r	pro_sup_r	arm_flex_l	arm_add_l	arm_rot_l	elbow_flex_l	pro_sup_l
      3.60000000	    -22.29534117	      2.28480923	      0.95146672	      0.90042107	      0.73395861	     -0.13322537	     67.54136321	    -15.08022569	     -2.67540216	     80.95782518	     41.35839601	      8.48976888	      0.00000000	     68.46330332	    -17.85378151	     -3.96695798	     79.36609906	     40.22082401	      7.97658530	      0.00000000	    -29.47788402	     -1.23743714	      3.16521009	     79.99895897	    -14.17988649	     42.44918288	    105.64118195	    102.30314209	     67.22946923	    -21.27109336	     26.99665143	    128.22312938	     93.99615583
      3.61666670	    -22.19601100	      2.08764141	      0.78011363	      0.89738529	      0.73060000	     -0.13190547	     67.71938098	    -14.90632690	     -3.00645691	     81.13654640	     40.86205285	      8.36374876	      0.00000000	     68.62220579	    -17.99681157	     -3.59507649	     79.37936231	     39.78181895	      7.57518621	      0.00000000	    -29.39074234	     -0.80127082	      4.03014394	     76.42707429	    -16.18971286	     46.20087617	    100.88150781	    101.10487340	     61.76500244	    -18.86982735	     26.45408259	    121.00395837	     93.63563302
      3.63333330	    -21.70028038	      2.13358676	      0.67938697	      0.90001243	      0.73799114	     -0.13107340	     66.82322385	    -14.84514493	     -3.16524889	     80.46422748	     40.59840805	      8.38648388	      0.00000000	     67.71492989	    -17.93686630	     -3.67982412	     78.71214196	     39.59238061	      7.45715155	      0.00000000	    -29.71070898	     -0.41664965	      3.80526362	     71.93737101	    -17.99270833	     47.29712821	     94.12759871	    100.21881848	     59.28855659	    -18.37009469	     26.03495574	    111.37026671	     93.00786237
      3.65000000	    -21.07641461	      1.93061263	      0.58192747	      0.91379712	      0.74340430	     -0.12287622	     64.99188893	    -14.35807959	     -3.73055622	     79.55663891	     40.51945047	      8.21816971	      0.00000000	     65.89407358	    -18.55441545	     -3.77113072	     77.52098939	     39.31236745	      7.98175119	      0.00000000	    -29.52752852	     -0.54462373	      3.87728026	     64.38788557	    -18.63719629	     46.36851647	     88.71410931	     98.75772379	     54.31697269	    -18.13179996	     25.58845138	    103.96625184	     91.80434403
      3.66666670	    -21.09617132	      1.82685544	      0.70468381	      0.91210843	      0.74778067	     -0.11953469	     63.99018246	    -13.88399769	     -4.26070115	     78.60208928	     40.40243659	      7.93362305	      0.00000000	     65.14240123	    -18.96022199	     -4.00543469	     76.60246518	     38.62634196	      7.91731571	      0.00000000	    -28.80098245	     -1.06534768	      4.18869695	     57.77861499	    -18.93291088	     43.47436822	     83.66878655	     94.99174395	     51.78568639	    -18.83138137	     26.40651596	     95.53687302	     88.30652513
      3.68333330	    -19.18101135	      1.57168147	      0.84746360	      0.92152777	      0.77186367	     -0.11957050	     59.58597149	    -13.51206186	     -5.27685439	     75.65103416	     39.50407772	      7.42286624	      0.00000000	     61.06471017	    -18.93502395	     -4.47444992	     73.82549410	     37.39254412	      7.89351711	      0.00000000	    -31.04744298	     -0.91068470	      3.66382637	     52.59585693	    -17.61184882	     40.68910122	     75.06495884	     94.08406464	     48.60028823	    -18.60643648	     24.38654825	     86.25192962	     86.98242279
      3.70000000	    -17.52942674	      1.51660264	      0.95261015	      0.92725062	      0.78358519	     -0.12090258	     55.61156589	    -13.36504317	     -6.07076535	     72.78992951	     38.68238390	      7.22407548	      0.00000000	     57.06366180	    -18.78996080	     -5.27749779	     70.88386605	     36.61061570	      8.02541990	      0.00000000	    -32.32777549	     -0.81376160	      3.11692979	     47.17237589	    -17.16437263	     38.50072567	     65.68320065	     93.45978629	     45.80191947	    -18.32786016	     22.73963138	     76.58766113	     85.86434873
      3.71666670	    -16.42838620	      1.55399251	      0.66356399	      0.92214420	      0.79463839	     -0.11833109	     53.05424346	    -13.07802939	     -6.53321508	     70.34025497	     37.37035130	      6.80293528	      0.00000000	     54.21654691	    -18.67928790	     -6.03092512	     68.30919728	     35.35661877	      7.49512405	      0.00000000	    -33.27587546	     -0.88245010	      2.87892569	     44.11954636	    -16.55964634	     36.57694520	     56.54526437	     92.91997318	     44.58674399	    -18.12760957	     21.24907193	     66.13167888	     84.86856260
      3.73333330	    -16.05466177	      1.43265580	      0.35829740	      0.92182837	      0.80564649	     -0.11675102	     51.54467030	    -12.67038221	     -7.06005736	     68.00404034	     35.88502709	      7.01949855	      0.00000000	     52.51492264	    -18.72928958	     -6.59899270	     65.86544763	     33.79732707	      7.26489870	      0.00000000	    -33.17454236	     -0.82124381	      2.91737551	     41.68522803	    -16.40231699	     35.71849859	     48.99083847	     92.03450831	     44.04925299	    -17.72332130	     22.31465281	     54.99391284	     83.37902781
      3.75000000	    -15.19971240	      1.40198844	      0.61528814	      0.92553751	      0.82420289	     -0.11968686	     48.62602434	    -12.70671215	     -7.98729304	     64.46672732	     34.39882212	      6.82695471	      0.00000000	     49.99803794	    -18.11045545	     -7.22440944	     62.90527997	     31.77631182	      6.21832464	      0.00000000	    -33.81530790	     -0.41096073	      2.19351012	     38.60848530	    -16.79601902	     34.60076878	     42.15693938	     90.97076720	     42.54853359	    -17.62826437	     23.59081532	     44.95988664	     82.04399560
      3.76666670	    -13.98733107	      1.16926450	      0.48516928	      0.94057004	      0.83064054	     -0.11898863	     45.21240380	    -12.30120239	     -8.57073930	     61.41237098	     33.29244707	      6.96502305	      0.00000000	     46.63073627	    -18.10527576	     -7.76190104	     60.20321122	     30.96079310	      5.68605347	      0.00000000	    -33.34143145	      0.07175831	      1.73095310	     33.80532750	    -17.42535996	     34.56777157	     37.54439129	     89.96093460	     38.06269761	    -17.94367017	     24.51607816	     36.02102095	     80.82895069
      3.78333330	    -12.80008834	      1.20307281	      0.49551174	      0.94668521	      0.84588096	     -0.12060743	     41.47235378	    -12.27832501	     -9.49272172	     57.95007197	     32.11557157	      7.19868918	      0.00000000	     42.96975292	    -17.60523782	     -8.62490642	     57.12292162	     29.90955453	      5.25630034	      0.00000000	    -33.13078541	      0.56197951	      0.71075815	     29.35771921	    -17.95599577	     34.30855526	     32.00659236	     88.81235924	     34.04656029	    -18.19468371	     26.24702620	     27.95623320	     79.88604838
      3.80000000	    -12.74529807	      1.33013726	      0.08879671	      0.94882984	      0.85040659	     -0.12172811	     39.57327781	    -12.13330981	     -9.90859241	     55.05889445	     31.21087076	      8.22174308	      0.00000000	     40.77289491	    -17.18958644	     -9.36695845	     54.40263260	     29.54293832	      5.19545982	      0.00000000	    -30.80402791	      0.71946988	      0.54550010	     25.10826876	    -18.85440101	     34.72651384	     27.61787034	     86.93088128	     30.20271270	    -17.98742753	     29.10425050	     22.03675163	     78.52692819
      3.81666670	    -12.98503287	      1.53215142	     -0.38672463	      0.95130296	      0.86251767	     -0.12008328	     38.01935701	    -11.89105192	    -10.35671613	     51.92526672	     29.93677712	      8.78333205	      0.00000000	     38.71799221	    -16.56677650	    -10.01906163	     51.18230288	     28.94032671	      5.60928169	      0.00000000	    -28.79231846	      0.66446088	      0.32940569	     21.79641990	    -19.32171496	     33.75153850	     24.66660042	     83.34244908	     26.66454936	    -18.17505835	     32.03157744	     18.65977763	     75.76843618
      3.83333330	    -13.29444980	      1.72296195	     -0.71888600	      0.94323596	      0.88249585	     -0.11494179	     36.52362780	    -11.32049516	    -10.70308364	     47.76213463	     27.89141691	      9.28764158	      0.00000000	     37.12215036	    -15.62970219	    -10.01126848	     47.08195340	     26.55067153	      4.64543344	      0.00000000	    -27.61047379	      0.55021933	      0.31562027	     19.72430876	    -20.00207840	     32.56851965	     24.03896996	     79.19914039	     24.45078681	    -18.50143935	     33.50925574	     17.28824828	     71.56041049
      3.85000000	    -13.28844477	      1.66832912	     -1.40839142	      0.94916742	      0.89590600	     -0.11512426	     34.61665411	    -10.16001784	    -10.61405188	     43.55376476	     26.03004220	      9.15479167	      0.00000000	     34.90295082	    -15.27722186	    -10.40282910	     43.13211641	     24.06205728	      3.88283415	      0.00000000	    -26.19317384	      0.63721849	      0.06666866	     17.10979302	    -20.64529249	     31.92648440	     23.43188183	     78.12277994	     20.87369083	    -18.83839026	     33.59099501	     16.77717695	     70.42012003
      3.86666670	    -12.71843969	      1.77856778	     -1.62632793	      0.95738492	      0.90685194	     -0.11790201	     31.87011439	     -9.81214734	    -11.00212621	     39.51231276	     23.52389993	      9.61792427	      0.00000000	     31.80953324	    -14.29043228	    -10.42031219	     38.97993001	     22.06769898	      3.21371669	      0.00000000	    -25.00286700	      0.78044410	     -0.13545673	     13.51809480	    -21.43990994	     28.80845176	     23.08651392	     74.98792420	     17.31336479	    -18.55363386	     31.82246000	     16.24166356	     66.93467140
      3.88333330	    -12.40845031	      1.68590546	     -2.17945649	      0.95984812	      0.92188784	     -0.11195370	     29.55779727	     -8.69899601	    -10.79666418	     35.29311522	     21.19056772	      9.17057626	      0.00000000	     28.89765529	    -13.88673042	    -10.64160575	     34.51877611	     19.21646979	      2.70900564	      0.00000000	    -23.70929088	      0.86086352	     -0.21248592	     10.96432956	    -22.12256213	     27.80029133	     22.58874630	     74.03152383	     13.87165906	    -18.67057949	     31.25497301	     15.85969291	     65.85066427
      3.90000000	    -11.67845010	      1.65781658	     -2.49831176	      0.97499655	      0.92060422	     -0.11438644	     26.35392381	     -8.12936357	    -10.80338585	     31.47717901	     19.49039288	      9.42567390	      0.00000000	     25.33329907	    -13.28726207	    -10.97148878	     30.43342595	     18.03788761	      2.76059480	      0.00000000	    -21.76084664	      1.09345176	     -0.15376190	      6.23906623	    -22.99438049	     23.55170773	     22.84783752	     70.44137987	      8.99867237	    -18.35545244	     27.42997487	     16.58910041	     61.82699205
